/* XPM */
static char *enemy1695833276[] = {
/* columns rows colors chars-per-pixel */
"64 64 227 2 ",
"   c #000000",
".  c #0C0201",
"X  c #01040B",
"o  c #000D0C",
"O  c #080A08",
"+  c #140002",
"@  c #1B0001",
"#  c #190608",
"$  c #060B12",
"%  c #011313",
"&  c #001915",
"*  c #001C1B",
"=  c #0D1111",
"-  c #141313",
";  c #1B1919",
":  c #15100C",
">  c #250000",
",  c #2C0000",
"<  c #2A070A",
"1  c #330002",
"2  c #3B0001",
"3  c #3D010A",
"4  c #330209",
"5  c #260F10",
"6  c #201D1B",
"7  c #2C1617",
"8  c #36181A",
"9  c #370D10",
"0  c #1C201F",
"q  c #25211D",
"w  c #2B251E",
"e  c #032220",
"r  c #182928",
"t  c #163130",
"y  c #232424",
"u  c #2B2622",
"i  c #2F2821",
"p  c #2C2B2B",
"a  c #322A22",
"s  c #39342A",
"d  c #263635",
"f  c #3D3D3D",
"g  c #373535",
"h  c #440001",
"j  c #4B0000",
"k  c #44020B",
"l  c #4C010B",
"z  c #49090E",
"x  c #550000",
"c  c #52000C",
"v  c #5C010C",
"b  c #580000",
"n  c #460E12",
"m  c #5A0C12",
"M  c #421719",
"N  c #4B191C",
"B  c #461518",
"V  c #52171A",
"C  c #54191D",
"Z  c #571619",
"A  c #640000",
"S  c #6D0000",
"D  c #65000C",
"F  c #6C000E",
"G  c #720000",
"H  c #7B000E",
"J  c #72000D",
"K  c #680C14",
"L  c #631117",
"P  c #6D161B",
"I  c #68191E",
"U  c #770F18",
"Y  c #481E20",
"T  c #661C20",
"R  c #7C1C22",
"E  c #403E3E",
"W  c #483C30",
"Q  c #512F2B",
"!  c #732126",
"~  c #4B4232",
"^  c #564737",
"/  c #5F533C",
"(  c #3C4746",
")  c #434444",
"_  c #4B4B4B",
"`  c #444B4B",
"'  c #514E4E",
"]  c #4D5454",
"[  c #545555",
"{  c #5C5B5B",
"}  c #545B5B",
"|  c #735D46",
" . c #605F5F",
".. c #675540",
"X. c #51605F",
"o. c #7C644B",
"O. c #786048",
"+. c #61605F",
"@. c #596363",
"#. c #646363",
"$. c #6C6C6B",
"%. c #686969",
"&. c #716E6E",
"*. c #6E7574",
"=. c #747574",
"-. c #787777",
";. c #7C7C7B",
":. c #727978",
">. c #71706F",
",. c #83000D",
"<. c #8A000F",
"1. c #850000",
"2. c #92000A",
"3. c #850010",
"4. c #8B0011",
"5. c #850B16",
"6. c #940111",
"7. c #9D0013",
"8. c #970B18",
"9. c #84141C",
"0. c #8A161E",
"q. c #97141E",
"w. c #B40000",
"e. c #B8000B",
"r. c #B80006",
"t. c #A40013",
"y. c #AC0013",
"u. c #A30D1B",
"i. c #AD0B1B",
"p. c #A80318",
"a. c #B60014",
"s. c #B90014",
"d. c #BA0119",
"f. c #B40B1B",
"g. c #B90C1D",
"h. c #B3051A",
"j. c #A3131E",
"k. c #AB111E",
"l. c #B7101F",
"z. c #AA0000",
"x. c #871A20",
"c. c #981821",
"v. c #A61621",
"b. c #BA1220",
"n. c #B51723",
"m. c #B9212A",
"M. c #BA2D32",
"N. c #BE3439",
"B. c #C10014",
"V. c #C1011A",
"C. c #C20B1E",
"Z. c #C01221",
"A. c #BC3F44",
"S. c #BE484B",
"D. c #83694D",
"F. c #82674C",
"G. c #866D51",
"H. c #8C7154",
"J. c #987958",
"K. c #807F7F",
"L. c #A06F6D",
"P. c #C4575A",
"I. c #C04448",
"U. c #C76668",
"Y. c #CB7678",
"T. c #CE7175",
"R. c #A5825D",
"E. c #AC8862",
"W. c #B38E66",
"Q. c #BA9469",
"!. c #C59C6E",
"~. c #C89E6F",
"^. c #C89E70",
"/. c #CCA172",
"(. c #D6A977",
"). c #D3A776",
"_. c #D17E80",
"`. c #848483",
"'. c #898686",
"]. c #8C8C8C",
"[. c #868B8B",
"{. c #939392",
"}. c #989796",
"|. c #9C9C9B",
" X c #989897",
".X c #A19F9F",
"XX c #B8A09F",
"oX c #A3A2A2",
"OX c #ABABAB",
"+X c #A8A7A7",
"@X c #B0AFAF",
"#X c #B4B4B3",
"$X c #BCBBBB",
"%X c #B8B7B6",
"&X c #CF8786",
"*X c #D19293",
"=X c #DB9FA0",
"-X c #C0BFBE",
";X c #D3ACAD",
":X c #E3B6B7",
">X c #C4C4C3",
",X c #CCCBCB",
"<X c #C9C8C7",
"1X c #D4D3D3",
"2X c #D8D7D7",
"3X c #DCDCDB",
"4X c #D8D8D7",
"5X c #EAC7C8",
"6X c #EDCFD0",
"7X c #EFD3D4",
"8X c #E0DFDF",
"9X c #F2D9D9",
"0X c #E0E0DF",
"qX c #E6E6E6",
"wX c #EBEBEB",
"eX c #E8E6E6",
"rX c #F6E3E4",
"tX c #F9E4E6",
"yX c #FAE7E9",
"uX c #FBEBED",
"iX c #F0EFEF",
"pX c #F0F0EF",
"aX c #FEEFF0",
"sX c #F0EFF0",
"dX c #F3F3F3",
"fX c #FEF2F3",
"gX c #FCFCFC",
/* pixels */
"wXdXqX{ [ |.#X#X<X3XqXwXdXgXgXgXwXeXdXgXgXdXwXwXgXgXgXwXwXdXgXgXwXwXdXgXgXdXwXwXgXgXgXwXwXdXgXgXdXwXdXgXgXdXwXwXgXgXdXwXwXdXgXgX",
"3X3X{.              y #. X1XgXgXwXqXdXgXgXdXwXwXgXgXgXeXqXgXgXgXwXwXdXgXgXdXwXwXgXgXgXqXqXgXgXgXwXqXdXgXgXsXeXwXgXgXgXwXqXgXgXgX",
"'.    - ; u q u ^ ~ .       #.>XdXgXdXgXgXdXdXdXdXgXdXdXdXdXgXdXdXdXdXdXdXdXdXdXdXgXdXdXdXdXgXdXdXdXdXgXgXdXdXdXgXdXdXdXdXdXgXdX",
"dX)   - u i i u E.).o.G.H.s     #.8XgXeXqXgXgXgXwXeXdXgXgXdXwXwXgXgXgXwXwXgXgXgXwXwXdXgXgXdXqXwXgXgXgXqXeXgXgXgXwXwXdXgXgXdXwXwX",
"gX3XO   q i a $ G.(.E.D.(.Q.^ W     OXdXwXdXgXgXwXeXdXgXgXdXqXwXgXgXgXwXwXdXgXgXwXqXdXgXgXdXwXwXgXgXgXqXeXgXgXgXwXwXdXgXgXdXwXwX",
"dX3X-   q i i 6 ~ Q.Q.| !.!.O.W.D.X   '.gXgXdXgXgXgXgXdXdXdXgXgXdXwXdXgXgXdXdXdXgXgXdXdXdXdXgXgXdXdXdXgXgXdXsXdXgXgXdXwXdXdXgXgX",
"wXE   q w i a = D.(./.O.Q./.o.W.(.| X   '.1X|.K.-.`.|.,XwXgXgXgXwXqXwXgXgXdXqXwXgXgXgXwXqXgXgXgXwXeXdXgXgXsXeXwXgXgXgXqXeXgXgXgX",
"wX.X-   6 u 6 : W o.H.O././.O.W./.G.J.s                 {.gXgXgXwXdXgXgXgXdXwXwXgXgXdXwXwXdXgXgXwXwXdXgXgXsXwXsXgXgXgXwXwXdXgXgX",
"gXgX%X  -             : O.E.O.!./.o.W.Q.w - 0.q.j.q.R ;   OXgXwXgXiXwX8XqXdXgXgXdXsXdXgXgXdXwXwXgXgXgXwXwXgXgXgXwXwXdXgXgXdXwXwX",
"gXgXqX  O {.3X3X<XOX-.X     O./.!.| W.(.D.  8.B.e.B.B.8.  p `.{ ` d r d ( [ -. X%X1XdXgXgXdXqXwXgXgXdXwXqXgXgXgXwXwXdXgXgXdXqXwX",
"dXgXsXOXeXgXgXgXgXgXgX3X;.    F.E.| ~.!.D...  t.B.a.s.s.z     . 1 h j h 2 @         ' {.1XdXgXdXdXgXdXdXdXdXdXdXdXdXdXdXdXdXdXdX",
"wXwXdXgXgXdXqXeXgXgXdXsXgX|.  X s W.~.!.| ~.~ j s.a.s.y.c o R C.d.d.s.d.d.g.k.v.x.v        .-XgXdXqXdXgXgXdXqXwXgXgXgXwXwXgXgXgX",
"wXqXdXgXgXdXwXwXgXgXgXwXwX#.  V   J.(.J.D.(.R.  y.s.B.H l 3 + 3.y.s.s.s.s.s.s.s.B.V.f.q.Z     _ %XiXdXgXgXdXwXwXgXgXgXwXwXgXgXgX",
"gXgXdXwXwXdXgXgXdXwXpXgXoX  N B.G & E.| !././ , d.s.7.l c c + . l 6.s.s.s.a.a.a.a.a.s.s.s.u.I     %.3XgXwXdXgXgXdXwXsXgXgXdXsXwX",
"gXgXgXwXqXgXgXgXwXqXdXdXg   p.s.d.2 & R.J.g   t.B.t.l c c c 3 @ l c a.s.a.s.s.s.d.s.a.a.d.s.B.u.C     @XdXgXgXgXwXqXdXgXgXdXeXwX",
"gXgXgXwXdXdXgXgXdXwXgX1X  Z s.a.s.t.< o   b y.B.7.l l c c c 4 @ c l t.s.a.s.a.s.a.s.s.a.s.s.a.s.s.0.    '.gXgXgXdXwXdXgXgXdXwXpX",
"wXwXdXgXgXdXwXwXgXgXgX%X  P B.a.a.s.a.7.a.B.d.s.H k c l c c + 4 c v a.s.a.s.s.s.s.a.a.s.s.s.s.a.d.y.7.8   >.wXpXgXgXgXqXeXgXgXgX",
"wXqXdXgXgXdXqXwXgXgXgX,X  n s.d.s.s.s.B.y.t.s.s.a.c c c c 3   c k <.s.a.s.s.a.a.a.s.s.s.a.a.s.a.s.7.H y.Y   %.wXgXgXgXdXwXdXgXgX",
"dXdXgXdXdXdXdXdXdXdXdXgX%.  9.B.a.s.s.,.k D s.s.s.3.k c l   3 k F d.s.s.a.s.s.s.s.s.s.a.s.a.a.s.d.B.v F y.Y   ;.gXgX3X].wXgXdXdX",
"gXgXdXwXwXgXgXgXwXwXwXgX-X  ; y.s.s.s.6.k l 7.s.a.y.v k   1 l D a.s.a.s.a.s.a.s.s.a.s.a.s.s.s.a.a.s.6.4 F y.8    X4X;   [ wXwXwX",
"gXgXgXwXwXgXgXgXwXeXdXdX]   = D B.a.s.s.F k J s.s.s.D   1 k J a.s.a.s.s.s.s.a.s.s.s.a.s.a.s.s.s.a.s.y.c k J t.+ ;   } 1X  #.iXwX",
"dXwXdXgXgXdXwXwXgXgXgX'.  9.t.  7.B.s.s.7.l c 7.t.k   4 c 6.s.s.a.a.a.s.a.s.s.a.a.s.a.s.s.s.a.s.s.a.s.F l k 4.R   %.eXgX,X  #XgX",
"wXqXsXgXgXdXwXwXgXgX1X  N s.B.D   6.a.l.n.I 8 5     c <.a.s.d.s.s.s.s.s.a.s.s.s.a.s.s.a.s.a.a.s.s.a.s.<.k v M   -.sXsXqXdX'.q gX",
"dXwXdXgXgXdXwXdXgXgX{   j.B.a.s.D % X         1 P 6.a.s.s.a.s.s.s.t.f.C.B.s.a.a.a.a.s.s.s.a.s.s.s.a.B.7.z B   `.sXwXeXwXdX1X  >X",
"gXgXgXwXwXdXgXgXdX%X  I B.a.s.s.Z.z.2.L.XX;X*XA.r.g.d.d.a.s.a.s.a.#   x ,.v.b.C.B.d.s.d.a.a.s.a.s.a.d.a.M   {.dXwXwXwXwXwXdX) `.",
"gXgXdXwXwXdXgXgXdX#.  i.s.a.s.l.w.P.7XaXaXaXdXtX&Xz.g.s.a.s.a.s.6.  ;.}     @ A 6.v.g.V.B.s.a.d.a.a.V.9.  |.dXwXwXwXwXwXwXdX`.f ",
"dXdXdXgXgXdXsXgX1X  L s.a.s.l.w.^.uXuXtXtXyXtXuXfXY.w.g.a.s.a.V.S d wXdX4X%X`.(     , S 8.f.s.a.s.V.J   +XdXwXwXwXwXwXwXeXdX+X  ",
"eXqXdXgXgXdXqXdX].  q.B.a.l.w.T.uXyXtXyXyXyXtXtXuX6Xw.d.s.s.a.C.j @.pXwXsXdXdXwX1XOX*.d     L e.d.A   %XdXwXwXwXwXwXwXwXeXdX%X  ",
"wXwXdXgXgXdXwXwX) > h.s.d.w.M.rXuXtXyXyXuXtXyXyXyXrXI.w.d.d.a.C.1 *.dXeXeXeXwXwXpXdXdXqX,X*.  k.F   $XdXwXwXwXwXwXwXwXwXeXgX@X  ",
"gXgXdXwXwXdXgX2X  L B.a.b.w.:XfXtXtXtXuXyXyXyXyXyXuXP.w.g.s.d.l., :.dXwXwXwXwXwXwXeXwXwXgX@X  m., ].gXeXwXwXwXwXeXpXwXwXwXdX{.. ",
"gXgXdXqXwXdXgXOX  c.s.d.w.M.rXyXtXuXtXtXyXyXyXyXuX9XM.w.a.s.s.g.@ $.dXeXwXwXwXwXwXwXwXeXdX.X  m.2 $.dXwXwXwXwXwXpXqXpXeXeXdX%.#.",
"gXgXgXdXdXdXgX`.  j.s.g.w.U.uXyXuXtXuXtXyXyXyXtXuX5Xw.g.s.a.s.f.> } pXwXwXwXwXwXpXdXwXwXdX].@ v.1 y 0XwXwXwXwXdX{.r 1XpXpXeX  oX",
"wXeXdXgXgXsXeX[   f.s.l.w.Y.aXyXyXyXyXyXyXyXyXyXuXT.w.g.s.s.s.s.j e 8XwXwXwXwXsX1X%XwXeXsX@.j f.C   OXdXwXwXwX0X;   `.dXdXOX  qX",
"wXeXsXgXgXdXqXg 2 s.s.l.w.U.uXyXyXyXyXyXyXyXrXfX:Xw.l.a.s.s.s.s.P   %XdXwXwXwXeX_   %XgX3X& ,.B.K , f wXwXeXdX,X    { dXwXy `.gX",
"gXgXdXsXsXgXeX% j V.a.d.s.l.9XyXtXyXyXyXyXrXfX6Xf.r.a.d.s.a.s.s.0.  =.dXwXwXdX>X    #.gXoX  v.B.<.V   ;.dXwXwX4X    =.gX`.  #XgX",
"gXgXgXeXeXgXqX  D s.s.s.l.w.Y.fXuXtXyXtXuXfX5Xm.w.g.s.a.s.s.s.s.t.7   <XdXqXdX%X    #.eXt b V.s.y.v C   `.wXdXdX;.  $X{.    .XdX",
"gXgXgXwXwXgX3X  m B.d.s.a.g.w.Y.9XuXaXaX9X=Xw.w.g.e.d.a.s.a.s.s.a.L   ) qXdXwX,X    ].'.  k.s.a.s.6.v M   ) .X,X%X%._   T   oXgX",
"wXwXdXgXgXgX1X  v d.a.a.s.s.l.w.d.U.Y.S.s.z.w.b.s.s.s.s.s.a.s.a.s.<.M   [ 3XdXgX{.  '   4.B.a.s.s.s.,.4 7             R c.  OXgX",
"wXeXsXgXgXdX3X& j s.s.a.s.a.e.g.l.w.e.=X7X6XY.w.g.s.a.s.s.s.s.s.s.d.F M   o `.OX{.0   5.s.d.s.a.s.s.a.k < 7 8 7 5 9 9 3.x.  %XgX",
"dXdXsXgXdXdXeXd 2 d.s.s.a.d.a.g.w.I.9XgXuXaXfXU.w.g.a.s.a.s.a.a.s.s.a.D B ,       . 8.B.a.s.s.a.s.s.6.l c k 3 k l c 3 4.9.  -XgX",
"gXgXdXeXeXdXgX}   f.d.s.s.s.d.a.e.7XaXtXyXrXaX:Xw.n.s.s.s.a.s.s.s.a.s.a.,.D C C P t.B.a.s.s.a.s.s.s.F l c c c c c c 3 7.K   ,XdX",
"gXgXgXwXwXgXgX;.  j.s.s.s.a.b.w.&XfXtXyXyXtXaX:Xw.b.s.a.s.s.a.s.s.s.s.s.s.a.t.y.s.B.a.d.a.s.s.a.s.t.l c c l c c c c k p.h r 0XwX",
"dXwXdXgXgXdXgXoX  x.B.a.s.a.l.w.:XaXyXyXyXtXfX&Xw.l.a.s.a.a.s.s.a.a.a.a.a.d.s.s.a.a.a.s.s.s.s.s.B.H k c c c l c c l v u.   .gXgX",
"wXqXdXgXgXiXwX,X  m s.d.a.s.l.w.:XfXtXyXtXfX5Xw.a.d.s.s.s.s.a.s.s.C.V.B.B.s.s.s.a.a.a.a.a.a.s.s.y.l c l c l c c c z 3.c.   XgXgX",
"dXwXdXgXgXdXpXwXf   h.s.a.a.g.w.P.uXaXuXfX6XM.w.g.s.s.s.a.a.s.v h b G 1.7.v.n.b.Z.C.V.B.B.s.d.s.H k c m m C C C V n S Z   ,XgXgX",
"gXgXdXwXwXdXgXgX'.  0.B.a.s.s.g.w.U.:X5X=Xh.w.g.s.a.s.s.a.a.B.j e $.( e       > j A G 6.j.l.b.v.N Z n 2 ,           *   E eXwXwX",
"gXgXgXwXqXgXgXgX,X  V s.s.s.a.s.h.w.w.w.w.e.g.s.s.s.a.s.s.a.B.L   $XdX3X1X-XOX{.*.] t o     +         y ` %.[.oX%X,X3Xu {.gXqXwX",
"gXdXdXdXdXdXgXdXdX{   8.s.a.s.s.s.g.b.g.b.d.s.s.a.s.s.s.a.a.s.D   . 3XdXpXdXdXdXdXdXqX4X,X#X X].oX$X1X3XeXdXdXdXsXgX0X  OXgXdXdX",
"wXqXdXgXgXdXeXwXgX$X  C s.s.s.s.a.s.a.a.s.s.s.s.a.a.s.s.a.a.B.J &    .sXwXeXwXeXdX1X3XdXdXdXdXdXdXdXdXdXwXwXwXeXwXwX{ ; 3XgXgXgX",
"wXwXdXgXgXsXwXwXgXgX{   0.B.a.s.s.s.s.s.s.a.a.s.s.s.s.a.s.s.s.a.2 *    XdXeXwXwXeXf _ wXwXeXwXeXwXwXpX`.$XdXwXwXdX{.  ,XdXdXgXgX",
"gXgXgXwXwXgXgXgXsXdX<X  7 y.s.a.s.a.s.a.s.s.a.s.a.s.a.s.s.a.s.s.y.. %   <XdXeXdX$.    $.dXwXwXwXwXiX'.  f qXwXdX%X  {.gXgXdXsXpX",
"gXgXgXqXwXdXgXgXwXqXgX'.  I B.a.s.a.s.s.a.s.s.a.s.s.a.s.s.s.s.a.V.6.&   g 0XgX].  ; |.  [.dXeXwXdX`.  `   -.gX2X  p wXgXgXdXqXwX",
"gXgXdXdXdXdXgXgXdXdXdXiXE   9.B.a.a.d.a.a.s.s.s.s.a.s.a.s.a.s.a.a.B.H &   '.#X    #.gX%X  oXgXwX;.  [ 3X[   OX%.  ,XgXdXgXdXdXsX",
"wXqXdXgXgXdXqXwXgXgXdXiX,X    8.B.a.a.s.s.s.a.a.a.s.s.a.s.s.a.s.d.a.s.v o     -   <XdXdX+X  %X`.  { qXdX;.      oXgXgXeXqXdXgXgX",
"wXwXdXgXgXdXwXwXgXgXgXqXdX%X  % 7.B.a.s.s.a.s.s.s.s.s.s.a.a.s.s.s.s.s.a.3 o ;   #.sXeXeXdX].    { eXiXdXOX    K.gXgXgXwXwXgXgXgX",
"dXdXdXdXdXdXdXgXdXdXdXgXdXgX+X  % 8.B.a.a.s.a.s.s.a.a.s.s.s.s.a.a.s.s.B.7.O -   ,XgXdXdXdXgX`.#.wXiXqXqX-X  #.gXdXdXdXdXdXdXdXdX",
"gXgXgXqXqXgXgXgXwXqXdXgXgXdXdXoX    9.B.s.s.s.a.a.s.s.s.s.s.a.a.s.s.s.6.D n   ' ,X$X$XOX{.{.>.@.X.) ) p   ; wXgXwXqXdXgXgXdXwXwX",
"gXgXdXwXwXgXgXgXwXwXdXgXgXdXqXgX$X    T a.B.s.a.s.s.a.s.s.s.s.d.y.<.v k k c 1 %               h S 1     '.qXgXgXwXwXdXgXgXdXwXwX",
"wXdXdXgXgXdXwXwXgXgXgXwXwXdXgXgXgX1X_   5 0.s.B.s.a.s.s.s.y.<.F l k l c c c c h z V C M N T u.n.!   - $XgXgXwXwXgXgXgXwXwXdXgXgX",
"wXqXdXgXgXdXwXwXgXgXgXqXwXgXgXgXeXiXwX|.    V q.d.s.6.D l 3 3 l c c c c c c l l n k c H 7.i.0.    %.0XgXgXwXwXwXgXgXgXqXwXgXgXgX",
"dXdXdXgXdXdXdXdXdXgXdXdXdXdXgXdXdXdXdXgX1X&.    h 0.j.t.6.H F c l k k k l l v F 4.t.i.v.P     _ >XgXdXdXgXdXwXdXdXgXdXdXdXdXgXgX",
"gXgXgXqXwXdXgXgXwXwXdXgXgXdXwXwXgXgXgXqXdXgX1X;.      x U v.v.i.y.t.t.t.t.p.i.v.q.K ,     { %XwXgXgXgXwXwXdXgXgXwXwXdXgXgXdXeXqX",
"gXgXdXwXqXgXgXgXwXwXdXgXgXwXwXwXgXgXdXwXqXdXgXgX2XoX#.&       > h c D v j 1         `  X3XdXdXwXgXgXdXwXeXgXgXgXwXwXdXgXgXsXeXwX",
"dXwXdXgXgXdXdXdXdXgXdXdXdXdXgXgXdXdXdXgXgXdXwXsXgXgXgX3X$X|.;.' r       & ( $.{.$X8XdXgXgXdXdXgXdXpXdXgXgXdXdXdXdXgXdXsXdXdXgXgX"
};
